<svg width="1440" height="62" viewBox="0 0 1440 62" fill="none" xmlns="http://www.w3.org/2000/svg">
<mask id="path-1-inside-1_60_345" fill="white">
<path d="M0 0H1440V62H0V0Z"/>
</mask>
<path d="M0 0H1440V62H0V0Z" fill="#212121"/>
<path d="M0 1H1440V-1H0V1Z" fill="#291313" mask="url(#path-1-inside-1_60_345)"/>
<path d="M513.798 30.5455C513.798 29.9737 513.938 29.4517 514.219 28.9794C514.499 28.5071 514.874 28.1325 515.343 27.8555C515.815 27.5749 516.337 27.4347 516.909 27.4347C517.406 27.4347 517.866 27.543 518.288 27.7596C518.711 27.9727 519.061 28.2656 519.338 28.6385C519.615 29.0114 519.783 29.4304 519.844 29.8956H518.459C518.395 29.5653 518.214 29.2955 517.915 29.0859C517.621 28.8729 517.285 28.7663 516.909 28.7663C516.582 28.7663 516.284 28.8462 516.014 29.006C515.744 29.1658 515.529 29.3807 515.369 29.6506C515.21 29.9169 515.13 30.2152 515.13 30.5455C515.13 30.8722 515.21 31.1705 515.369 31.4403C515.529 31.7102 515.744 31.9251 516.014 32.0849C516.284 32.2447 516.582 32.3246 516.909 32.3246C517.285 32.3246 517.607 32.2198 517.873 32.0103C518.139 31.7972 518.306 31.5256 518.374 31.1953H519.759C519.698 31.6605 519.537 32.0795 519.274 32.4524C519.011 32.8253 518.675 33.12 518.267 33.3366C517.859 33.5497 517.406 33.6562 516.909 33.6562C516.337 33.6562 515.815 33.5178 515.343 33.2408C514.874 32.9602 514.499 32.5838 514.219 32.1115C513.938 31.6392 513.798 31.1172 513.798 30.5455ZM516.861 36.1705C516.087 36.1705 515.359 36.0249 514.677 35.7337C513.999 35.4425 513.4 35.0394 512.882 34.5245C512.367 34.006 511.962 33.4077 511.667 32.7294C511.376 32.0511 511.232 31.3232 511.236 30.5455C511.239 29.7678 511.387 29.0398 511.678 28.3615C511.973 27.6832 512.377 27.0866 512.892 26.5717C513.407 26.0533 514.004 25.6484 514.682 25.3572C515.36 25.0661 516.087 24.9205 516.861 24.9205C517.638 24.9205 518.366 25.0661 519.045 25.3572C519.727 25.6484 520.323 26.0533 520.835 26.5717C521.349 27.0866 521.752 27.6832 522.044 28.3615C522.335 29.0398 522.482 29.7678 522.486 30.5455C522.489 31.3232 522.346 32.0511 522.054 32.7294C521.763 33.4077 521.36 34.006 520.845 34.5245C520.33 35.0394 519.732 35.4425 519.05 35.7337C518.368 36.0249 517.638 36.1705 516.861 36.1705ZM516.861 34.7536C517.443 34.7536 517.99 34.6452 518.501 34.4286C519.013 34.212 519.46 33.9119 519.844 33.5284C520.231 33.1413 520.533 32.6939 520.749 32.1861C520.966 31.6747 521.072 31.1296 521.069 30.5508C521.069 29.9684 520.959 29.4215 520.739 28.9102C520.522 28.3988 520.22 27.9513 519.833 27.5678C519.45 27.1808 519.004 26.8789 518.496 26.6623C517.988 26.4457 517.443 26.3374 516.861 26.3374C516.282 26.3374 515.739 26.4457 515.231 26.6623C514.723 26.8789 514.276 27.1808 513.888 27.5678C513.505 27.9549 513.203 28.4041 512.983 28.9155C512.763 29.4233 512.653 29.9684 512.653 30.5508C512.649 31.1261 512.756 31.6694 512.972 32.1808C513.192 32.6886 513.494 33.136 513.878 33.5231C514.265 33.9066 514.712 34.2085 515.22 34.4286C515.732 34.6452 516.278 34.7536 516.861 34.7536ZM528.745 36V34.8068L532.436 30.9822C532.83 30.5668 533.155 30.2028 533.411 29.8903C533.67 29.5742 533.864 29.2741 533.991 28.9901C534.119 28.706 534.183 28.4041 534.183 28.0845C534.183 27.7223 534.098 27.4098 533.928 27.147C533.757 26.8807 533.525 26.6765 533.23 26.5344C532.935 26.3888 532.603 26.3161 532.234 26.3161C531.843 26.3161 531.502 26.396 531.211 26.5558C530.92 26.7156 530.696 26.9411 530.54 27.2322C530.384 27.5234 530.305 27.8643 530.305 28.255H528.734C528.734 27.5909 528.887 27.0103 529.192 26.5131C529.498 26.016 529.917 25.6307 530.449 25.3572C530.982 25.0803 531.587 24.9418 532.266 24.9418C532.951 24.9418 533.555 25.0785 534.077 25.3519C534.602 25.6218 535.012 25.9911 535.307 26.4599C535.602 26.9251 535.749 27.4506 535.749 28.0366C535.749 28.4414 535.673 28.8374 535.52 29.2244C535.371 29.6115 535.11 30.043 534.737 30.5188C534.364 30.9911 533.846 31.5646 533.182 32.2393L531.014 34.5085V34.5884H535.925V36H528.745ZM541.742 36.1811C540.9 36.1776 540.181 35.9556 539.585 35.5153C538.988 35.0749 538.532 34.4339 538.216 33.5923C537.9 32.7507 537.741 31.7369 537.741 30.5508C537.741 29.3683 537.9 28.358 538.216 27.5199C538.535 26.6818 538.993 26.0426 539.59 25.6023C540.19 25.1619 540.907 24.9418 541.742 24.9418C542.576 24.9418 543.292 25.1637 543.888 25.6076C544.485 26.0479 544.941 26.6871 545.257 27.5252C545.577 28.3597 545.737 29.3683 545.737 30.5508C545.737 31.7404 545.579 32.756 545.263 33.5977C544.947 34.4357 544.49 35.0767 543.894 35.5206C543.297 35.9609 542.58 36.1811 541.742 36.1811ZM541.742 34.7589C542.48 34.7589 543.058 34.3984 543.473 33.6776C543.892 32.9567 544.102 31.9144 544.102 30.5508C544.102 29.6452 544.006 28.88 543.814 28.255C543.626 27.6264 543.354 27.1506 542.999 26.8274C542.647 26.5007 542.228 26.3374 541.742 26.3374C541.007 26.3374 540.43 26.6996 540.011 27.424C539.592 28.1484 539.38 29.1907 539.377 30.5508C539.377 31.4599 539.471 32.2287 539.659 32.8572C539.851 33.4822 540.123 33.9563 540.474 34.2795C540.826 34.5991 541.248 34.7589 541.742 34.7589ZM547.627 36V34.8068L551.318 30.9822C551.712 30.5668 552.037 30.2028 552.293 29.8903C552.552 29.5742 552.745 29.2741 552.873 28.9901C553.001 28.706 553.065 28.4041 553.065 28.0845C553.065 27.7223 552.98 27.4098 552.809 27.147C552.639 26.8807 552.406 26.6765 552.112 26.5344C551.817 26.3888 551.485 26.3161 551.116 26.3161C550.725 26.3161 550.384 26.396 550.093 26.5558C549.802 26.7156 549.578 26.9411 549.422 27.2322C549.265 27.5234 549.187 27.8643 549.187 28.255H547.616C547.616 27.5909 547.769 27.0103 548.074 26.5131C548.379 26.016 548.798 25.6307 549.331 25.3572C549.864 25.0803 550.469 24.9418 551.147 24.9418C551.833 24.9418 552.437 25.0785 552.959 25.3519C553.484 25.6218 553.894 25.9911 554.189 26.4599C554.484 26.9251 554.631 27.4506 554.631 28.0366C554.631 28.4414 554.555 28.8374 554.402 29.2244C554.253 29.6115 553.992 30.043 553.619 30.5188C553.246 30.9911 552.728 31.5646 552.064 32.2393L549.896 34.5085V34.5884H554.807V36H547.627ZM556.362 33.8693V32.5376L561.076 25.0909H562.126V27.0511H561.46L558.088 32.3885V32.4737H564.549V33.8693H556.362ZM561.535 36V33.4645L561.545 32.8572V25.0909H563.106V36H561.535ZM570.525 36V25.0909H574.413C575.262 25.0909 575.965 25.2454 576.523 25.5543C577.08 25.8633 577.497 26.2859 577.774 26.8221C578.051 27.3548 578.19 27.9549 578.19 28.6225C578.19 29.2937 578.05 29.8974 577.769 30.4336C577.492 30.9663 577.073 31.3888 576.512 31.7013C575.954 32.0103 575.253 32.1648 574.408 32.1648H571.734V30.7692H574.259C574.795 30.7692 575.23 30.6768 575.564 30.4922C575.898 30.304 576.143 30.0483 576.299 29.7251C576.455 29.402 576.533 29.0344 576.533 28.6225C576.533 28.2106 576.455 27.8448 576.299 27.5252C576.143 27.2056 575.896 26.9553 575.558 26.7741C575.225 26.593 574.784 26.5025 574.237 26.5025H572.171V36H570.525ZM580.119 36V25.0909H584.008C584.853 25.0909 585.554 25.2365 586.112 25.5277C586.673 25.8189 587.092 26.2219 587.369 26.7369C587.646 27.2482 587.785 27.8395 587.785 28.5107C587.785 29.1783 587.644 29.766 587.364 30.2738C587.087 30.7781 586.668 31.1705 586.107 31.451C585.549 31.7315 584.848 31.8718 584.003 31.8718H581.057V30.4549H583.853C584.386 30.4549 584.819 30.3786 585.153 30.2259C585.491 30.0732 585.737 29.8512 585.894 29.56C586.05 29.2688 586.128 28.919 586.128 28.5107C586.128 28.0987 586.048 27.7418 585.888 27.44C585.732 27.1381 585.485 26.9073 585.148 26.7475C584.814 26.5842 584.375 26.5025 583.832 26.5025H581.765V36H580.119ZM585.505 31.0781L588.2 36H586.325L583.683 31.0781H585.505ZM599.264 30.5455C599.264 31.7102 599.051 32.7116 598.624 33.5497C598.198 34.3842 597.614 35.027 596.872 35.478C596.133 35.9254 595.293 36.1491 594.352 36.1491C593.408 36.1491 592.564 35.9254 591.822 35.478C591.084 35.027 590.501 34.3825 590.075 33.5444C589.649 32.7063 589.436 31.7067 589.436 30.5455C589.436 29.3807 589.649 28.381 590.075 27.5465C590.501 26.7085 591.084 26.0657 591.822 25.6183C592.564 25.1673 593.408 24.9418 594.352 24.9418C595.293 24.9418 596.133 25.1673 596.872 25.6183C597.614 26.0657 598.198 26.7085 598.624 27.5465C599.051 28.381 599.264 29.3807 599.264 30.5455ZM597.634 30.5455C597.634 29.6577 597.49 28.9102 597.202 28.3029C596.918 27.6921 596.527 27.2305 596.03 26.918C595.537 26.6019 594.977 26.4439 594.352 26.4439C593.724 26.4439 593.163 26.6019 592.669 26.918C592.176 27.2305 591.785 27.6921 591.497 28.3029C591.213 28.9102 591.071 29.6577 591.071 30.5455C591.071 31.4332 591.213 32.1825 591.497 32.7933C591.785 33.4006 592.176 33.8622 592.669 34.1783C593.163 34.4908 593.724 34.647 594.352 34.647C594.977 34.647 595.537 34.4908 596.03 34.1783C596.527 33.8622 596.918 33.4006 597.202 32.7933C597.49 32.1825 597.634 31.4332 597.634 30.5455ZM601.316 36V25.0909H608.081V26.5078H602.962V29.8317H607.596V31.2433H602.962V36H601.316ZM610.105 36V25.0909H616.944V26.5078H611.751V29.8317H616.587V31.2433H611.751V34.5831H617.008V36H610.105ZM618.605 26.5078V25.0909H627.048V26.5078H623.644V36H622.003V26.5078H618.605ZM637.921 30.5455C637.921 31.7102 637.708 32.7116 637.282 33.5497C636.855 34.3842 636.271 35.027 635.529 35.478C634.79 35.9254 633.951 36.1491 633.01 36.1491C632.065 36.1491 631.222 35.9254 630.479 35.478C629.741 35.027 629.158 34.3825 628.732 33.5444C628.306 32.7063 628.093 31.7067 628.093 30.5455C628.093 29.3807 628.306 28.381 628.732 27.5465C629.158 26.7085 629.741 26.0657 630.479 25.6183C631.222 25.1673 632.065 24.9418 633.01 24.9418C633.951 24.9418 634.79 25.1673 635.529 25.6183C636.271 26.0657 636.855 26.7085 637.282 27.5465C637.708 28.381 637.921 29.3807 637.921 30.5455ZM636.291 30.5455C636.291 29.6577 636.147 28.9102 635.859 28.3029C635.575 27.6921 635.185 27.2305 634.688 26.918C634.194 26.6019 633.635 26.4439 633.01 26.4439C632.381 26.4439 631.82 26.6019 631.326 26.918C630.833 27.2305 630.442 27.6921 630.154 28.3029C629.87 28.9102 629.728 29.6577 629.728 30.5455C629.728 31.4332 629.87 32.1825 630.154 32.7933C630.442 33.4006 630.833 33.8622 631.326 34.1783C631.82 34.4908 632.381 34.647 633.01 34.647C633.635 34.647 634.194 34.4908 634.688 34.1783C635.185 33.8622 635.575 33.4006 635.859 32.7933C636.147 32.1825 636.291 31.4332 636.291 30.5455ZM646.988 25.0909H648.639V32.266C648.639 33.0295 648.46 33.706 648.101 34.2955C647.743 34.8814 647.239 35.343 646.589 35.6804C645.939 36.0142 645.177 36.1811 644.304 36.1811C643.434 36.1811 642.674 36.0142 642.024 35.6804C641.374 35.343 640.87 34.8814 640.511 34.2955C640.152 33.706 639.973 33.0295 639.973 32.266V25.0909H641.619V32.1328C641.619 32.6264 641.727 33.065 641.944 33.4485C642.164 33.832 642.475 34.1339 642.876 34.354C643.277 34.5707 643.753 34.679 644.304 34.679C644.858 34.679 645.335 34.5707 645.736 34.354C646.141 34.1339 646.45 33.832 646.663 33.4485C646.88 33.065 646.988 32.6264 646.988 32.1328V25.0909ZM651.032 36V25.0909H654.921C655.766 25.0909 656.468 25.2365 657.025 25.5277C657.586 25.8189 658.005 26.2219 658.282 26.7369C658.559 27.2482 658.698 27.8395 658.698 28.5107C658.698 29.1783 658.557 29.766 658.277 30.2738C658 30.7781 657.581 31.1705 657.02 31.451C656.462 31.7315 655.761 31.8718 654.916 31.8718H651.97V30.4549H654.767C655.299 30.4549 655.732 30.3786 656.066 30.2259C656.404 30.0732 656.65 29.8512 656.807 29.56C656.963 29.2688 657.041 28.919 657.041 28.5107C657.041 28.0987 656.961 27.7418 656.801 27.44C656.645 27.1381 656.398 26.9073 656.061 26.7475C655.727 26.5842 655.289 26.5025 654.745 26.5025H652.678V36H651.032ZM656.418 31.0781L659.113 36H657.238L654.596 31.0781H656.418ZM666.65 27.9567C666.594 27.4524 666.359 27.0618 665.947 26.7848C665.535 26.5043 665.017 26.364 664.392 26.364C663.944 26.364 663.557 26.435 663.231 26.5771C662.904 26.7156 662.65 26.9073 662.469 27.1523C662.291 27.3938 662.203 27.669 662.203 27.978C662.203 28.2372 662.263 28.4609 662.384 28.6491C662.508 28.8374 662.67 28.9954 662.868 29.1232C663.071 29.2475 663.287 29.3523 663.518 29.4375C663.749 29.5192 663.971 29.5866 664.184 29.6399L665.249 29.9169C665.597 30.0021 665.954 30.1175 666.32 30.2631C666.686 30.4087 667.025 30.6005 667.338 30.8384C667.65 31.0763 667.902 31.3711 668.094 31.7227C668.289 32.0742 668.387 32.495 668.387 32.9851C668.387 33.603 668.227 34.1516 667.907 34.631C667.591 35.1104 667.132 35.4886 666.528 35.7656C665.928 36.0426 665.202 36.1811 664.349 36.1811C663.532 36.1811 662.826 36.0515 662.229 35.7923C661.633 35.533 661.166 35.1655 660.828 34.6896C660.491 34.2102 660.305 33.642 660.269 32.9851H661.92C661.952 33.3793 662.08 33.7077 662.304 33.9705C662.531 34.2298 662.82 34.4233 663.172 34.5511C663.527 34.6754 663.916 34.7376 664.339 34.7376C664.804 34.7376 665.218 34.6648 665.58 34.5192C665.945 34.37 666.233 34.1641 666.443 33.9013C666.652 33.6349 666.757 33.3242 666.757 32.9691C666.757 32.646 666.665 32.3814 666.48 32.1754C666.299 31.9695 666.052 31.799 665.74 31.6641C665.431 31.5291 665.081 31.4102 664.69 31.3072L663.401 30.9556C662.528 30.7177 661.835 30.3679 661.324 29.9062C660.816 29.4446 660.562 28.8338 660.562 28.0739C660.562 27.4453 660.732 26.8967 661.073 26.4279C661.414 25.9592 661.876 25.5952 662.458 25.3359C663.041 25.0732 663.698 24.9418 664.429 24.9418C665.168 24.9418 665.819 25.0714 666.384 25.3306C666.952 25.5898 667.4 25.9467 667.726 26.4013C668.053 26.8523 668.224 27.3707 668.238 27.9567H666.65ZM672.298 34.5085L672.218 35.0891C672.165 35.5153 672.074 35.9592 671.946 36.4208C671.822 36.886 671.693 37.3175 671.558 37.7152C671.426 38.1129 671.318 38.429 671.233 38.6634H670.103C670.15 38.4432 670.214 38.1449 670.295 37.7685C670.377 37.3956 670.457 36.9783 670.535 36.5167C670.613 36.055 670.672 35.5845 670.711 35.1051L670.764 34.5085H672.298ZM677.931 26.5078V25.0909H686.374V26.5078H682.97V36H681.329V26.5078H677.931ZM697.247 30.5455C697.247 31.7102 697.034 32.7116 696.608 33.5497C696.182 34.3842 695.597 35.027 694.855 35.478C694.117 35.9254 693.277 36.1491 692.336 36.1491C691.391 36.1491 690.548 35.9254 689.806 35.478C689.067 35.027 688.485 34.3825 688.058 33.5444C687.632 32.7063 687.419 31.7067 687.419 30.5455C687.419 29.3807 687.632 28.381 688.058 27.5465C688.485 26.7085 689.067 26.0657 689.806 25.6183C690.548 25.1673 691.391 24.9418 692.336 24.9418C693.277 24.9418 694.117 25.1673 694.855 25.6183C695.597 26.0657 696.182 26.7085 696.608 27.5465C697.034 28.381 697.247 29.3807 697.247 30.5455ZM695.617 30.5455C695.617 29.6577 695.473 28.9102 695.186 28.3029C694.901 27.6921 694.511 27.2305 694.014 26.918C693.52 26.6019 692.961 26.4439 692.336 26.4439C691.707 26.4439 691.146 26.6019 690.653 26.918C690.159 27.2305 689.768 27.6921 689.481 28.3029C689.197 28.9102 689.055 29.6577 689.055 30.5455C689.055 31.4332 689.197 32.1825 689.481 32.7933C689.768 33.4006 690.159 33.8622 690.653 34.1783C691.146 34.4908 691.707 34.647 692.336 34.647C692.961 34.647 693.52 34.4908 694.014 34.1783C694.511 33.8622 694.901 33.4006 695.186 32.7933C695.473 32.1825 695.617 31.4332 695.617 30.5455ZM702.831 36H699.299V25.0909H702.943C704.011 25.0909 704.929 25.3093 705.696 25.7461C706.464 26.1793 707.051 26.8026 707.46 27.6158C707.872 28.4254 708.078 29.3967 708.078 30.5295C708.078 31.6658 707.87 32.6424 707.454 33.4592C707.042 34.2759 706.446 34.9045 705.665 35.3448C704.883 35.7816 703.939 36 702.831 36ZM700.945 34.5618H702.74C703.571 34.5618 704.262 34.4055 704.812 34.093C705.363 33.777 705.775 33.3207 706.048 32.7241C706.321 32.1239 706.458 31.3924 706.458 30.5295C706.458 29.6737 706.321 28.9474 706.048 28.3509C705.778 27.7543 705.375 27.3015 704.839 26.9925C704.303 26.6836 703.637 26.5291 702.841 26.5291H700.945V34.5618ZM719.6 30.5455C719.6 31.7102 719.387 32.7116 718.961 33.5497C718.535 34.3842 717.951 35.027 717.209 35.478C716.47 35.9254 715.63 36.1491 714.689 36.1491C713.745 36.1491 712.901 35.9254 712.159 35.478C711.42 35.027 710.838 34.3825 710.412 33.5444C709.986 32.7063 709.773 31.7067 709.773 30.5455C709.773 29.3807 709.986 28.381 710.412 27.5465C710.838 26.7085 711.42 26.0657 712.159 25.6183C712.901 25.1673 713.745 24.9418 714.689 24.9418C715.63 24.9418 716.47 25.1673 717.209 25.6183C717.951 26.0657 718.535 26.7085 718.961 27.5465C719.387 28.381 719.6 29.3807 719.6 30.5455ZM717.971 30.5455C717.971 29.6577 717.827 28.9102 717.539 28.3029C717.255 27.6921 716.864 27.2305 716.367 26.918C715.874 26.6019 715.314 26.4439 714.689 26.4439C714.061 26.4439 713.5 26.6019 713.006 26.918C712.512 27.2305 712.122 27.6921 711.834 28.3029C711.55 28.9102 711.408 29.6577 711.408 30.5455C711.408 31.4332 711.55 32.1825 711.834 32.7933C712.122 33.4006 712.512 33.8622 713.006 34.1783C713.5 34.4908 714.061 34.647 714.689 34.647C715.314 34.647 715.874 34.4908 716.367 34.1783C716.864 33.8622 717.255 33.4006 717.539 32.7933C717.827 32.1825 717.971 31.4332 717.971 30.5455ZM727.603 27.9567C727.546 27.4524 727.311 27.0618 726.899 26.7848C726.487 26.5043 725.969 26.364 725.344 26.364C724.897 26.364 724.509 26.435 724.183 26.5771C723.856 26.7156 723.602 26.9073 723.421 27.1523C723.244 27.3938 723.155 27.669 723.155 27.978C723.155 28.2372 723.215 28.4609 723.336 28.6491C723.46 28.8374 723.622 28.9954 723.821 29.1232C724.023 29.2475 724.24 29.3523 724.47 29.4375C724.701 29.5192 724.923 29.5866 725.136 29.6399L726.202 29.9169C726.55 30.0021 726.907 30.1175 727.272 30.2631C727.638 30.4087 727.977 30.6005 728.29 30.8384C728.602 31.0763 728.854 31.3711 729.046 31.7227C729.241 32.0742 729.339 32.495 729.339 32.9851C729.339 33.603 729.179 34.1516 728.86 34.631C728.544 35.1104 728.084 35.4886 727.48 35.7656C726.88 36.0426 726.154 36.1811 725.301 36.1811C724.485 36.1811 723.778 36.0515 723.181 35.7923C722.585 35.533 722.118 35.1655 721.78 34.6896C721.443 34.2102 721.257 33.642 721.221 32.9851H722.872C722.904 33.3793 723.032 33.7077 723.256 33.9705C723.483 34.2298 723.773 34.4233 724.124 34.5511C724.479 34.6754 724.868 34.7376 725.291 34.7376C725.756 34.7376 726.17 34.6648 726.532 34.5192C726.898 34.37 727.185 34.1641 727.395 33.9013C727.604 33.6349 727.709 33.3242 727.709 32.9691C727.709 32.646 727.617 32.3814 727.432 32.1754C727.251 31.9695 727.004 31.799 726.692 31.6641C726.383 31.5291 726.033 31.4102 725.642 31.3072L724.353 30.9556C723.48 30.7177 722.787 30.3679 722.276 29.9062C721.768 29.4446 721.514 28.8338 721.514 28.0739C721.514 27.4453 721.685 26.8967 722.025 26.4279C722.366 25.9592 722.828 25.5952 723.41 25.3359C723.993 25.0732 724.65 24.9418 725.381 24.9418C726.12 24.9418 726.772 25.0714 727.336 25.3306C727.904 25.5898 728.352 25.9467 728.679 26.4013C729.005 26.8523 729.176 27.3707 729.19 27.9567H727.603ZM735.276 36V25.0909H736.922V34.5831H741.865V36H735.276ZM752.794 30.5455C752.794 31.7102 752.581 32.7116 752.155 33.5497C751.729 34.3842 751.144 35.027 750.402 35.478C749.664 35.9254 748.824 36.1491 747.883 36.1491C746.938 36.1491 746.095 35.9254 745.352 35.478C744.614 35.027 744.031 34.3825 743.605 33.5444C743.179 32.7063 742.966 31.7067 742.966 30.5455C742.966 29.3807 743.179 28.381 743.605 27.5465C744.031 26.7085 744.614 26.0657 745.352 25.6183C746.095 25.1673 746.938 24.9418 747.883 24.9418C748.824 24.9418 749.664 25.1673 750.402 25.6183C751.144 26.0657 751.729 26.7085 752.155 27.5465C752.581 28.381 752.794 29.3807 752.794 30.5455ZM751.164 30.5455C751.164 29.6577 751.02 28.9102 750.732 28.3029C750.448 27.6921 750.058 27.2305 749.561 26.918C749.067 26.6019 748.508 26.4439 747.883 26.4439C747.254 26.4439 746.693 26.6019 746.199 26.918C745.706 27.2305 745.315 27.6921 745.028 28.3029C744.743 28.9102 744.601 29.6577 744.601 30.5455C744.601 31.4332 744.743 32.1825 745.028 32.7933C745.315 33.4006 745.706 33.8622 746.199 34.1783C746.693 34.4908 747.254 34.647 747.883 34.647C748.508 34.647 749.067 34.4908 749.561 34.1783C750.058 33.8622 750.448 33.4006 750.732 32.7933C751.02 32.1825 751.164 31.4332 751.164 30.5455ZM760.796 27.9567C760.739 27.4524 760.505 27.0618 760.093 26.7848C759.681 26.5043 759.162 26.364 758.537 26.364C758.09 26.364 757.703 26.435 757.376 26.5771C757.049 26.7156 756.796 26.9073 756.614 27.1523C756.437 27.3938 756.348 27.669 756.348 27.978C756.348 28.2372 756.408 28.4609 756.529 28.6491C756.653 28.8374 756.815 28.9954 757.014 29.1232C757.216 29.2475 757.433 29.3523 757.664 29.4375C757.895 29.5192 758.117 29.5866 758.33 29.6399L759.395 29.9169C759.743 30.0021 760.1 30.1175 760.466 30.2631C760.831 30.4087 761.171 30.6005 761.483 30.8384C761.796 31.0763 762.048 31.3711 762.239 31.7227C762.435 32.0742 762.532 32.495 762.532 32.9851C762.532 33.603 762.373 34.1516 762.053 34.631C761.737 35.1104 761.277 35.4886 760.673 35.7656C760.073 36.0426 759.347 36.1811 758.495 36.1811C757.678 36.1811 756.971 36.0515 756.375 35.7923C755.778 35.533 755.311 35.1655 754.974 34.6896C754.636 34.2102 754.45 33.642 754.415 32.9851H756.066C756.098 33.3793 756.226 33.7077 756.449 33.9705C756.677 34.2298 756.966 34.4233 757.318 34.5511C757.673 34.6754 758.062 34.7376 758.484 34.7376C758.949 34.7376 759.363 34.6648 759.725 34.5192C760.091 34.37 760.379 34.1641 760.588 33.9013C760.798 33.6349 760.902 33.3242 760.902 32.9691C760.902 32.646 760.81 32.3814 760.625 32.1754C760.444 31.9695 760.198 31.799 759.885 31.6641C759.576 31.5291 759.226 31.4102 758.836 31.3072L757.547 30.9556C756.673 30.7177 755.981 30.3679 755.469 29.9062C754.961 29.4446 754.707 28.8338 754.707 28.0739C754.707 27.4453 754.878 26.8967 755.219 26.4279C755.56 25.9592 756.021 25.5952 756.604 25.3359C757.186 25.0732 757.843 24.9418 758.575 24.9418C759.313 24.9418 759.965 25.0714 760.53 25.3306C761.098 25.5898 761.545 25.9467 761.872 26.4013C762.199 26.8523 762.369 27.3707 762.383 27.9567H760.796ZM772.001 36H768.469V25.0909H772.112C773.181 25.0909 774.099 25.3093 774.866 25.7461C775.633 26.1793 776.221 26.8026 776.63 27.6158C777.041 28.4254 777.247 29.3967 777.247 30.5295C777.247 31.6658 777.04 32.6424 776.624 33.4592C776.212 34.2759 775.616 34.9045 774.834 35.3448C774.053 35.7816 773.109 36 772.001 36ZM770.115 34.5618H771.91C772.741 34.5618 773.432 34.4055 773.982 34.093C774.533 33.777 774.945 33.3207 775.218 32.7241C775.491 32.1239 775.628 31.3924 775.628 30.5295C775.628 29.6737 775.491 28.9474 775.218 28.3509C774.948 27.7543 774.545 27.3015 774.009 26.9925C773.473 26.6836 772.807 26.5291 772.011 26.5291H770.115V34.5618ZM779.294 36V25.0909H786.134V26.5078H780.94V29.8317H785.777V31.2433H780.94V34.5831H786.198V36H779.294ZM788.332 36V25.0909H792.221C793.066 25.0909 793.767 25.2365 794.325 25.5277C794.886 25.8189 795.305 26.2219 795.582 26.7369C795.859 27.2482 795.997 27.8395 795.997 28.5107C795.997 29.1783 795.857 29.766 795.577 30.2738C795.3 30.7781 794.881 31.1705 794.32 31.451C793.762 31.7315 793.061 31.8718 792.215 31.8718H789.27V30.4549H792.066C792.599 30.4549 793.032 30.3786 793.366 30.2259C793.703 30.0732 793.95 29.8512 794.106 29.56C794.263 29.2688 794.341 28.919 794.341 28.5107C794.341 28.0987 794.261 27.7418 794.101 27.44C793.945 27.1381 793.698 26.9073 793.361 26.7475C793.027 26.5842 792.588 26.5025 792.045 26.5025H789.978V36H788.332ZM793.718 31.0781L796.413 36H794.538L791.896 31.0781H793.718ZM798 36V25.0909H804.84V26.5078H799.646V29.8317H804.483V31.2433H799.646V34.5831H804.904V36H798ZM816.099 28.6385H814.437C814.373 28.2834 814.254 27.9709 814.08 27.701C813.906 27.4311 813.693 27.2021 813.441 27.0138C813.189 26.8256 812.907 26.6836 812.594 26.5877C812.285 26.4918 811.957 26.4439 811.609 26.4439C810.98 26.4439 810.417 26.6019 809.92 26.918C809.426 27.234 809.036 27.6974 808.748 28.3082C808.464 28.919 808.322 29.6648 808.322 30.5455C808.322 31.4332 808.464 32.1825 808.748 32.7933C809.036 33.4041 809.428 33.8658 809.925 34.1783C810.423 34.4908 810.982 34.647 811.603 34.647C811.948 34.647 812.275 34.6009 812.583 34.5085C812.896 34.4126 813.178 34.2724 813.43 34.0877C813.683 33.9031 813.896 33.6776 814.07 33.4112C814.247 33.1413 814.37 32.8324 814.437 32.4844L816.099 32.4897C816.01 33.0259 815.838 33.5195 815.582 33.9705C815.33 34.418 815.005 34.805 814.608 35.1317C814.213 35.4549 813.762 35.7053 813.255 35.8828C812.747 36.0604 812.193 36.1491 811.593 36.1491C810.648 36.1491 809.806 35.9254 809.068 35.478C808.329 35.027 807.747 34.3825 807.321 33.5444C806.898 32.7063 806.687 31.7067 806.687 30.5455C806.687 29.3807 806.9 28.381 807.326 27.5465C807.752 26.7085 808.335 26.0657 809.073 25.6183C809.812 25.1673 810.652 24.9418 811.593 24.9418C812.172 24.9418 812.711 25.0252 813.212 25.1921C813.716 25.3555 814.169 25.5969 814.57 25.9165C814.972 26.2326 815.304 26.6197 815.566 27.0778C815.829 27.5323 816.007 28.0526 816.099 28.6385ZM818.069 36V25.0909H819.715V29.8317H825.153V25.0909H826.804V36H825.153V31.2433H819.715V36H818.069ZM838.678 30.5455C838.678 31.7102 838.465 32.7116 838.038 33.5497C837.612 34.3842 837.028 35.027 836.286 35.478C835.547 35.9254 834.707 36.1491 833.766 36.1491C832.822 36.1491 831.978 35.9254 831.236 35.478C830.498 35.027 829.915 34.3825 829.489 33.5444C829.063 32.7063 828.85 31.7067 828.85 30.5455C828.85 29.3807 829.063 28.381 829.489 27.5465C829.915 26.7085 830.498 26.0657 831.236 25.6183C831.978 25.1673 832.822 24.9418 833.766 24.9418C834.707 24.9418 835.547 25.1673 836.286 25.6183C837.028 26.0657 837.612 26.7085 838.038 27.5465C838.465 28.381 838.678 29.3807 838.678 30.5455ZM837.048 30.5455C837.048 29.6577 836.904 28.9102 836.616 28.3029C836.332 27.6921 835.941 27.2305 835.444 26.918C834.951 26.6019 834.391 26.4439 833.766 26.4439C833.138 26.4439 832.577 26.6019 832.083 26.918C831.59 27.2305 831.199 27.6921 830.911 28.3029C830.627 28.9102 830.485 29.6577 830.485 30.5455C830.485 31.4332 830.627 32.1825 830.911 32.7933C831.199 33.4006 831.59 33.8622 832.083 34.1783C832.577 34.4908 833.138 34.647 833.766 34.647C834.391 34.647 834.951 34.4908 835.444 34.1783C835.941 33.8622 836.332 33.4006 836.616 32.7933C836.904 32.1825 837.048 31.4332 837.048 30.5455ZM846.68 27.9567C846.623 27.4524 846.388 27.0618 845.977 26.7848C845.565 26.5043 845.046 26.364 844.421 26.364C843.974 26.364 843.587 26.435 843.26 26.5771C842.933 26.7156 842.679 26.9073 842.498 27.1523C842.321 27.3938 842.232 27.669 842.232 27.978C842.232 28.2372 842.292 28.4609 842.413 28.6491C842.537 28.8374 842.699 28.9954 842.898 29.1232C843.1 29.2475 843.317 29.3523 843.548 29.4375C843.778 29.5192 844 29.5866 844.213 29.6399L845.279 29.9169C845.627 30.0021 845.984 30.1175 846.349 30.2631C846.715 30.4087 847.054 30.6005 847.367 30.8384C847.679 31.0763 847.931 31.3711 848.123 31.7227C848.319 32.0742 848.416 32.495 848.416 32.9851C848.416 33.603 848.256 34.1516 847.937 34.631C847.621 35.1104 847.161 35.4886 846.557 35.7656C845.957 36.0426 845.231 36.1811 844.379 36.1811C843.562 36.1811 842.855 36.0515 842.259 35.7923C841.662 35.533 841.195 35.1655 840.858 34.6896C840.52 34.2102 840.334 33.642 840.298 32.9851H841.95C841.982 33.3793 842.109 33.7077 842.333 33.9705C842.56 34.2298 842.85 34.4233 843.201 34.5511C843.556 34.6754 843.945 34.7376 844.368 34.7376C844.833 34.7376 845.247 34.6648 845.609 34.5192C845.975 34.37 846.262 34.1641 846.472 33.9013C846.681 33.6349 846.786 33.3242 846.786 32.9691C846.786 32.646 846.694 32.3814 846.509 32.1754C846.328 31.9695 846.081 31.799 845.769 31.6641C845.46 31.5291 845.11 31.4102 844.719 31.3072L843.43 30.9556C842.557 30.7177 841.864 30.3679 841.353 29.9062C840.845 29.4446 840.591 28.8338 840.591 28.0739C840.591 27.4453 840.762 26.8967 841.103 26.4279C841.444 25.9592 841.905 25.5952 842.488 25.3359C843.07 25.0732 843.727 24.9418 844.458 24.9418C845.197 24.9418 845.849 25.0714 846.413 25.3306C846.982 25.5898 847.429 25.9467 847.756 26.4013C848.082 26.8523 848.253 27.3707 848.267 27.9567H846.68ZM854.353 36V25.0909H858.241C859.086 25.0909 859.788 25.2365 860.345 25.5277C860.906 25.8189 861.325 26.2219 861.602 26.7369C861.879 27.2482 862.018 27.8395 862.018 28.5107C862.018 29.1783 861.878 29.766 861.597 30.2738C861.32 30.7781 860.901 31.1705 860.34 31.451C859.782 31.7315 859.081 31.8718 858.236 31.8718H855.29V30.4549H858.087C858.619 30.4549 859.053 30.3786 859.387 30.2259C859.724 30.0732 859.971 29.8512 860.127 29.56C860.283 29.2688 860.361 28.919 860.361 28.5107C860.361 28.0987 860.281 27.7418 860.122 27.44C859.965 27.1381 859.719 26.9073 859.381 26.7475C859.047 26.5842 858.609 26.5025 858.066 26.5025H855.999V36H854.353ZM859.738 31.0781L862.433 36H860.558L857.916 31.0781H859.738ZM864.021 36V25.0909H870.86V26.5078H865.667V29.8317H870.503V31.2433H865.667V34.5831H870.924V36H864.021ZM879.009 27.9567C878.952 27.4524 878.718 27.0618 878.306 26.7848C877.894 26.5043 877.375 26.364 876.75 26.364C876.303 26.364 875.916 26.435 875.589 26.5771C875.262 26.7156 875.008 26.9073 874.827 27.1523C874.65 27.3938 874.561 27.669 874.561 27.978C874.561 28.2372 874.621 28.4609 874.742 28.6491C874.866 28.8374 875.028 28.9954 875.227 29.1232C875.429 29.2475 875.646 29.3523 875.877 29.4375C876.108 29.5192 876.329 29.5866 876.543 29.6399L877.608 29.9169C877.956 30.0021 878.313 30.1175 878.679 30.2631C879.044 30.4087 879.383 30.6005 879.696 30.8384C880.008 31.0763 880.261 31.3711 880.452 31.7227C880.648 32.0742 880.745 32.495 880.745 32.9851C880.745 33.603 880.585 34.1516 880.266 34.631C879.95 35.1104 879.49 35.4886 878.886 35.7656C878.286 36.0426 877.56 36.1811 876.708 36.1811C875.891 36.1811 875.184 36.0515 874.588 35.7923C873.991 35.533 873.524 35.1655 873.187 34.6896C872.849 34.2102 872.663 33.642 872.627 32.9851H874.279C874.311 33.3793 874.438 33.7077 874.662 33.9705C874.889 34.2298 875.179 34.4233 875.53 34.5511C875.886 34.6754 876.274 34.7376 876.697 34.7376C877.162 34.7376 877.576 34.6648 877.938 34.5192C878.304 34.37 878.592 34.1641 878.801 33.9013C879.011 33.6349 879.115 33.3242 879.115 32.9691C879.115 32.646 879.023 32.3814 878.838 32.1754C878.657 31.9695 878.41 31.799 878.098 31.6641C877.789 31.5291 877.439 31.4102 877.049 31.3072L875.759 30.9556C874.886 30.7177 874.193 30.3679 873.682 29.9062C873.174 29.4446 872.92 28.8338 872.92 28.0739C872.92 27.4453 873.091 26.8967 873.432 26.4279C873.773 25.9592 874.234 25.5952 874.817 25.3359C875.399 25.0732 876.056 24.9418 876.788 24.9418C877.526 24.9418 878.178 25.0714 878.742 25.3306C879.311 25.5898 879.758 25.9467 880.085 26.4013C880.411 26.8523 880.582 27.3707 880.596 27.9567H879.009ZM882.712 36V25.0909H889.552V26.5078H884.358V29.8317H889.195V31.2433H884.358V34.5831H889.616V36H882.712ZM891.75 36V25.0909H895.639C896.484 25.0909 897.185 25.2365 897.743 25.5277C898.304 25.8189 898.723 26.2219 899 26.7369C899.277 27.2482 899.415 27.8395 899.415 28.5107C899.415 29.1783 899.275 29.766 898.995 30.2738C898.718 30.7781 898.299 31.1705 897.737 31.451C897.18 31.7315 896.479 31.8718 895.633 31.8718H892.688V30.4549H895.484C896.017 30.4549 896.45 30.3786 896.784 30.2259C897.121 30.0732 897.368 29.8512 897.524 29.56C897.681 29.2688 897.759 28.919 897.759 28.5107C897.759 28.0987 897.679 27.7418 897.519 27.44C897.363 27.1381 897.116 26.9073 896.779 26.7475C896.445 26.5842 896.006 26.5025 895.463 26.5025H893.396V36H891.75ZM897.136 31.0781L899.831 36H897.956L895.314 31.0781H897.136ZM902.108 25.0909L905.144 33.9759H905.267L908.303 25.0909H910.082L906.156 36H904.255L900.329 25.0909H902.108ZM911.466 36H909.719L913.644 25.0909H915.546L919.472 36H917.725L914.64 27.0724H914.555L911.466 36ZM911.759 31.728H917.426V33.1129H911.759V31.728ZM924.579 36H921.047V25.0909H924.691C925.759 25.0909 926.677 25.3093 927.445 25.7461C928.212 26.1793 928.799 26.8026 929.208 27.6158C929.62 28.4254 929.826 29.3967 929.826 30.5295C929.826 31.6658 929.618 32.6424 929.202 33.4592C928.79 34.2759 928.194 34.9045 927.413 35.3448C926.631 35.7816 925.687 36 924.579 36ZM922.693 34.5618H924.488C925.319 34.5618 926.01 34.4055 926.56 34.093C927.111 33.777 927.523 33.3207 927.796 32.7241C928.07 32.1239 928.206 31.3924 928.206 30.5295C928.206 29.6737 928.07 28.9474 927.796 28.3509C927.526 27.7543 927.123 27.3015 926.587 26.9925C926.051 26.6836 925.385 26.5291 924.589 26.5291H922.693V34.5618ZM941.349 30.5455C941.349 31.7102 941.135 32.7116 940.709 33.5497C940.283 34.3842 939.699 35.027 938.957 35.478C938.218 35.9254 937.378 36.1491 936.437 36.1491C935.493 36.1491 934.649 35.9254 933.907 35.478C933.169 35.027 932.586 34.3825 932.16 33.5444C931.734 32.7063 931.521 31.7067 931.521 30.5455C931.521 29.3807 931.734 28.381 932.16 27.5465C932.586 26.7085 933.169 26.0657 933.907 25.6183C934.649 25.1673 935.493 24.9418 936.437 24.9418C937.378 24.9418 938.218 25.1673 938.957 25.6183C939.699 26.0657 940.283 26.7085 940.709 27.5465C941.135 28.381 941.349 29.3807 941.349 30.5455ZM939.719 30.5455C939.719 29.6577 939.575 28.9102 939.287 28.3029C939.003 27.6921 938.612 27.2305 938.115 26.918C937.622 26.6019 937.062 26.4439 936.437 26.4439C935.809 26.4439 935.248 26.6019 934.754 26.918C934.26 27.2305 933.87 27.6921 933.582 28.3029C933.298 28.9102 933.156 29.6577 933.156 30.5455C933.156 31.4332 933.298 32.1825 933.582 32.7933C933.87 33.4006 934.26 33.8622 934.754 34.1783C935.248 34.4908 935.809 34.647 936.437 34.647C937.062 34.647 937.622 34.4908 938.115 34.1783C938.612 33.8622 939.003 33.4006 939.287 32.7933C939.575 32.1825 939.719 31.4332 939.719 30.5455ZM949.351 27.9567C949.294 27.4524 949.059 27.0618 948.647 26.7848C948.236 26.5043 947.717 26.364 947.092 26.364C946.645 26.364 946.258 26.435 945.931 26.5771C945.604 26.7156 945.35 26.9073 945.169 27.1523C944.992 27.3938 944.903 27.669 944.903 27.978C944.903 28.2372 944.963 28.4609 945.084 28.6491C945.208 28.8374 945.37 28.9954 945.569 29.1232C945.771 29.2475 945.988 29.3523 946.218 29.4375C946.449 29.5192 946.671 29.5866 946.884 29.6399L947.95 29.9169C948.298 30.0021 948.655 30.1175 949.02 30.2631C949.386 30.4087 949.725 30.6005 950.038 30.8384C950.35 31.0763 950.602 31.3711 950.794 31.7227C950.989 32.0742 951.087 32.495 951.087 32.9851C951.087 33.603 950.927 34.1516 950.608 34.631C950.292 35.1104 949.832 35.4886 949.228 35.7656C948.628 36.0426 947.902 36.1811 947.049 36.1811C946.233 36.1811 945.526 36.0515 944.929 35.7923C944.333 35.533 943.866 35.1655 943.528 34.6896C943.191 34.2102 943.005 33.642 942.969 32.9851H944.62C944.652 33.3793 944.78 33.7077 945.004 33.9705C945.231 34.2298 945.521 34.4233 945.872 34.5511C946.227 34.6754 946.616 34.7376 947.039 34.7376C947.504 34.7376 947.918 34.6648 948.28 34.5192C948.646 34.37 948.933 34.1641 949.143 33.9013C949.352 33.6349 949.457 33.3242 949.457 32.9691C949.457 32.646 949.365 32.3814 949.18 32.1754C948.999 31.9695 948.752 31.799 948.44 31.6641C948.131 31.5291 947.781 31.4102 947.39 31.3072L946.101 30.9556C945.228 30.7177 944.535 30.3679 944.024 29.9062C943.516 29.4446 943.262 28.8338 943.262 28.0739C943.262 27.4453 943.433 26.8967 943.774 26.4279C944.114 25.9592 944.576 25.5952 945.158 25.3359C945.741 25.0732 946.398 24.9418 947.129 24.9418C947.868 24.9418 948.52 25.0714 949.084 25.3306C949.652 25.5898 950.1 25.9467 950.427 26.4013C950.753 26.8523 950.924 27.3707 950.938 27.9567H949.351Z" fill="white"/>
</svg>
