<svg width="1562" height="926" viewBox="0 0 1562 926" fill="none" xmlns="http://www.w3.org/2000/svg">
<mask id="mask0_60_380" style="mask-type:alpha" maskUnits="userSpaceOnUse" x="0" y="0" width="1562" height="926">
<path d="M0.5 0H1561.5V926H0.5V0Z" fill="#D9D9D9"/>
</mask>
<g mask="url(#mask0_60_380)">
<rect width="1461.86" height="709.889" transform="matrix(0.988346 -0.145877 0.181895 0.984512 72.6455 700.843)" fill="#0C9999"/>
<path d="M1381.06 553.893C482.11 743.209 291.393 1240.28 99.3498 1657.88L291.733 1703.88L379.649 1518.02C428.517 1529.89 479.263 1538.52 515.487 1537.3C1622.36 1500.03 1867.49 139.902 1867.49 139.902C1773.54 302.11 1070 345.682 570.219 442.034C70.4341 538.386 -116.63 882.654 -109.954 1041.47C-103.279 1200.29 78.6549 1333.33 78.6549 1333.33C374.811 587.778 1381.06 553.893 1381.06 553.893Z" fill="#0C9999"/>
</g>
</svg>
